<?xml version="1.0" encoding="utf-8"?>
<!-- Generator: Adobe Illustrator 21.0.2, SVG Export Plug-In . SVG Version: 6.00 Build 0)  -->
<svg version="1.1" id="Layer_1" xmlns="http://www.w3.org/2000/svg" xmlns:xlink="http://www.w3.org/1999/xlink" x="0px" y="0px"
	 viewBox="0 0 506.8 506.3" style="enable-background:new 0 0 506.8 506.3;" xml:space="preserve">
<style type="text/css">
	.st0{fill:#C8C8C8;}
	.st1{fill:none;stroke:#F2F2F2;stroke-width:2;}
	.st2{fill:#76B2DD;}
	.st3{fill:#FFFFFF;}
	.st4{fill:#B3B3B3;}
	.st5{fill:none;stroke:#231F20;stroke-width:3.75;}
	.st6{fill:none;stroke:#231F20;stroke-width:1.25;}
	.st7{fill:none;stroke:#231F20;}
	.st8{fill:#76B2DD;stroke:#231F20;stroke-width:3.75;stroke-miterlimit:6;}
	.st9{fill:#231F20;}
	.st10{fill:#ED1C24;}
	.st11{fill:none;stroke:#231F20;stroke-width:3.75;stroke-linecap:round;stroke-linejoin:round;}
	.st12{fill:none;stroke:#231F20;stroke-width:3.75;stroke-linecap:round;stroke-miterlimit:6;}
	.st13{fill:#B3B3B3;stroke:#231F20;stroke-width:2.75;}
	.st14{fill:#ED1C24;stroke:#231F20;stroke-width:3.75;}
	.st15{fill:#B3B3B3;stroke:#231F20;stroke-width:1.25;}
	.st16{fill:#B3B3B3;stroke:#231F20;stroke-width:2.75;stroke-linecap:round;}
</style>
<g id="Gear">
	<path id="Cog" class="st0" d="M506.7,276.1c-0.1-0.6-0.8-1.1-1.3-1.5c-0.6-0.5-1.2-1-1.7-1.4c-1.3-1-2.6-2-3.9-2.9
		c-2.6-1.8-5.2-3.5-7.9-5.2c-5.3-3.3-10.8-6.3-16.5-8.9c-2.8-1.3-5.7-2.4-8.7-3.2c-0.5-0.1-0.7,0-0.7-0.6c0-0.4,0-0.8,0-1.2
		c0-0.8,0-1.6,0-2.3c0-1.7-0.1-3.4-0.2-5.1c-0.2-3.3-0.4-6.5-0.7-9.8c-0.1-1.6-0.3-3.1-0.5-4.7c-0.1-0.8-0.2-1.6-0.3-2.4
		c-0.1-0.6,0.1-0.5,0.6-0.7c0.4-0.2,0.9-0.4,1.3-0.6c5.6-2.6,10.8-6.1,15.8-9.8s9.9-7.7,14.4-12c1.1-1,2.2-2.1,3.2-3.2
		c0.5-0.5,1-1.1,1.5-1.6c0.5-0.6,0.5-0.9,0.4-1.7c-0.5-3.1-1.5-6.2-2.3-9.3s-1.6-6.2-2.6-9.2c-0.2-0.5-0.3-1.2-0.7-1.6
		c-0.3-0.4-1.4-0.6-2-0.8c-1.6-0.5-3.2-0.9-4.7-1.3c-6.3-1.5-12.7-2.6-19.2-3.3c-6.4-0.7-13-1.2-19.5-0.5c-0.4,0-0.7,0.1-1.1,0.1
		c-0.1-0.4-0.3-0.7-0.4-1c-0.3-0.7-0.6-1.4-0.9-2.1c-0.7-1.5-1.3-3-2-4.5c-1.3-2.8-2.7-5.7-4.1-8.4c-0.7-1.3-1.4-2.6-2.1-4
		c-0.4-0.7-0.7-1.3-1.1-2c-0.2-0.3-0.4-0.6-0.5-1c-0.4-0.7-0.4-0.6,0.1-1.2c2.1-2.2,4-4.6,5.8-7c3.7-5.1,7-10.6,10-16.2
		c1.5-2.8,2.9-5.7,4.3-8.6c0.6-1.4,1.2-2.7,1.8-4.1c0.3-0.7,0.5-1.4,0.8-2.1c0.2-0.5,0.7-1.5,0.4-2c-1.4-2.7-3.5-5.1-5.3-7.5
		c-2-2.6-3.9-5.1-5.9-7.6c-0.4-0.5-0.8-1.1-1.3-1.5c-0.5-0.6-0.9-0.6-1.7-0.6c-1.6,0.1-3.2,0.3-4.8,0.5c-3.2,0.5-6.4,1.1-9.6,1.8
		c-6.3,1.4-12.5,3.1-18.5,5.2c-2.9,1-5.8,2.2-8.5,3.6c-0.7,0.3-1.3,0.7-2,1.1c-0.4,0.3-0.5,0.5-0.9,0.1c-0.3-0.3-0.5-0.5-0.8-0.8
		c-1.2-1.1-2.3-2.3-3.5-3.4c-4.6-4.3-9.3-8.3-14.3-12.2c-0.3-0.2-0.6-0.5-0.9-0.7c0.1-0.4,0.3-0.7,0.4-1.1c0.3-0.7,0.5-1.4,0.8-2.1
		c0.5-1.6,1-3.1,1.4-4.7c0.8-3.1,1.5-6.3,2-9.5c1.1-6.4,1.7-12.8,2.1-19.2c0.2-3.2,0.3-6.4-0.1-9.6c0-0.3-0.9-0.8-1.1-1
		c-0.6-0.4-1.2-0.8-1.9-1.2c-1.4-0.9-2.9-1.7-4.3-2.6c-2.8-1.6-5.6-3.2-8.4-4.8c-0.7-0.4-2.7-1.9-3.5-1.5c-1.5,0.6-2.9,1.4-4.3,2.3
		C361.2,33.4,356,37,351,40.8c-4.9,3.8-9.7,7.8-13.9,12.4c-1,1.1-2,2.3-2.9,3.5c-1.5-0.6-3.1-1.2-4.6-1.8c-3-1.1-6-2.2-9-3.2
		s-6.1-1.9-9.1-2.8c-0.7-0.2-1.5-0.4-2.2-0.6c0-0.8,0-1.5,0-2.3c-0.1-1.6-0.2-3.3-0.4-4.9c-0.8-6.4-2.3-12.7-4.1-18.9
		c-1.7-6-3.6-12.2-6.4-17.9c-0.2-0.4-0.4-1.2-0.9-1.4c-0.6-0.2-1.2-0.3-1.8-0.5c-1.6-0.3-3.3-0.5-4.9-0.8c-3.2-0.5-6.5-0.8-9.7-1.2
		c-1.5-0.2-3-0.4-4.5-0.4c-1.4,0-2.5,2-3.3,3c-1.9,2.5-3.7,5.1-5.5,7.7c-3.5,5.2-6.6,10.7-9.5,16.3c-1.4,2.8-2.7,5.6-3.8,8.5
		c-0.5,1.4-1,2.8-1.4,4.2c-0.1,0.4-0.2,0.7-0.3,1.1c-0.4,0-0.8,0-1.2,0c-0.9,0-1.8,0-2.7,0c-6.5,0.1-13.1,0.6-19.6,1.4
		c-0.8,0.1-1.6,0.2-2.4,0.3c-0.6,0.1-0.5-0.1-0.7-0.6c-0.1-0.3-0.3-0.7-0.4-1c-0.7-1.4-1.4-2.8-2.2-4.2c-1.5-2.7-3.2-5.4-5-7.9
		c-3.5-5.2-7.5-10.1-11.6-14.8c-2.1-2.3-4.2-4.7-6.4-6.8c-0.5-0.5-1.1-1-1.6-1.5c-0.5-0.4-0.7-0.5-1.4-0.4c-1.6,0.2-3.2,0.7-4.7,1
		c-3.2,0.8-6.3,1.7-9.4,2.5c-1.4,0.4-2.9,0.8-4.3,1.2c-0.6,0.2-1.2,0.4-1.7,0.7c-0.6,0.4-0.8,1.4-1,2.1c-1.9,6.1-3.1,12.6-4,18.9
		c-0.9,6.4-1.6,12.9-1.4,19.4c0,1.6,0.1,3.1,0.3,4.7c0,0.4,0.1,0.8,0.1,1.1c0.1,0.6-0.2,0.5-0.7,0.7c-0.8,0.3-1.6,0.7-2.4,1
		c-2.9,1.3-5.7,2.6-8.6,4c-2.8,1.4-5.6,2.8-8.3,4.3c-0.7,0.4-1.3,0.7-2,1.1c-0.3,0.2-0.6,0.4-1,0.5c-0.4,0.2-0.5,0.5-0.9,0.1
		c-1.1-1.1-2.3-2.2-3.5-3.2c-4.8-4-10.1-7.4-15.5-10.5c-5.5-3.2-11.2-6.2-17.1-8.5c-0.7-0.3-1.4-0.5-2.1-0.8
		c-0.4-0.1-1.4-0.7-1.8-0.5c-1.3,0.5-2.5,1.6-3.6,2.4c-2.6,1.9-5.2,3.9-7.7,5.9c-1.2,0.9-2.4,1.9-3.6,2.8c-0.5,0.4-1.1,0.9-1.6,1.3
		c-0.7,0.6-0.9,1-0.8,1.9c0.2,3.2,0.7,6.3,1.3,9.4c1.2,6.4,2.7,12.7,4.7,18.8c0.9,3,2,5.9,3.1,8.8c0.6,1.4,1.2,2.7,1.8,4.1
		c0.3,0.7,0.7,1.3,1,2c0.2,0.3,0.4,0.7,0.6,1c-0.4,0.4-0.7,0.7-1.1,1.1c-4.4,4.5-8.6,9.2-12.5,14c-0.9,1.2-1.9,2.3-2.8,3.5
		c-0.2,0.3-0.5,0.6-0.7,0.9c-0.3,0.4-0.5,0.2-0.9,0c-0.8-0.3-1.7-0.6-2.5-0.9c-3-1-6.1-1.8-9.3-2.5c-6.3-1.3-12.7-2.2-19.2-2.7
		c-3.2-0.3-6.5-0.5-9.7-0.5c-1.5,0-3.1,0-4.6,0.2c-1.1,0.1-2,2.2-2.5,3.1c-1.7,2.8-3.3,5.6-4.9,8.4c-0.8,1.3-1.5,2.7-2.3,4
		c-0.4,0.7-0.7,1.3-1.1,2c-0.2,0.5-0.9,1.4-0.6,1.9c1.2,2.9,3,5.5,4.6,8.1c1.7,2.7,3.5,5.2,5.3,7.8c3.7,5,7.6,9.9,11.9,14.4
		c2.2,2.2,4.4,4.4,6.9,6.3c-1.2,2.9-2.3,5.9-3.4,8.9c-1.1,3-2.1,6-3,9c-0.5,1.5-0.9,2.9-1.3,4.4c-0.2,0.7-0.4,1.5-0.6,2.2
		c-0.2,0.6-0.3,0.4-0.9,0.4c-0.5,0-1,0-1.5,0c-6.4,0.3-12.8,1.6-19,3.2c-6.2,1.6-12.3,3.5-18.3,5.8c-1.4,0.5-2.8,1.1-4.1,1.8
		c-0.4,0.2-1.5,0.5-1.7,0.9c-0.3,0.6-0.4,1.3-0.5,2c-0.6,3.2-1,6.4-1.4,9.6c-0.2,1.5-0.4,3.1-0.6,4.6C0.3,227,0,228.6,0,230.2
		c0,1.3,1.8,2.3,2.7,3c1.3,1,2.6,2,3.9,2.9c5.1,3.6,10.5,7,16,10c5.4,3,11.1,5.7,17,7.5c0.4,0.1,0.7,0.2,1.1,0.3c0,0.4,0,0.8,0,1.2
		c0,0.8,0,1.6,0,2.3c0,1.7,0.1,3.4,0.2,5.1c0.1,3.3,0.4,6.5,0.7,9.8c0.1,1.6,0.3,3.1,0.5,4.7c0.1,0.8,0.2,1.6,0.3,2.4
		c0.1,0.5,0.3,0.7-0.2,0.9c-0.4,0.2-0.9,0.4-1.3,0.6c-2.8,1.3-5.4,2.8-8,4.4c-5.3,3.3-10.4,7.1-15.2,11.1c-2.4,2-4.8,4-7,6.2
		c-1.1,1-2.2,2.1-3.2,3.1c-0.5,0.5-1,1.1-1.5,1.6c-0.5,0.6-0.7,0.8-0.7,1.6c0.3,3.1,1.4,6.2,2.2,9.2c0.8,3.1,1.6,6.2,2.6,9.2
		c0.2,0.6,0.4,1.2,0.7,1.7c0.3,0.6,1.2,0.7,1.7,0.9c1.6,0.5,3.1,0.9,4.7,1.3c3.2,0.8,6.4,1.4,9.6,2c6.4,1.1,12.8,1.9,19.3,2.2
		c3.3,0.1,6.5,0.1,9.8-0.2c0.4,0,0.8-0.1,1.1-0.1c0.6-0.1,0.5,0.2,0.7,0.7c0.3,0.7,0.6,1.4,0.9,2.1c0.7,1.5,1.3,3,2,4.5
		c1.3,2.8,2.7,5.7,4.1,8.4c0.7,1.3,1.4,2.7,2.1,4c0.4,0.7,0.7,1.3,1.1,2c0.2,0.3,0.4,0.7,0.5,1c0.3,0.5,0.7,0.8,0.3,1.2
		c-4.3,4.4-7.9,9.6-11.1,14.8c-3.4,5.4-6.4,11.1-9.1,16.9c-0.6,1.4-1.3,2.7-1.8,4.1c-0.3,0.7-0.6,1.4-0.8,2.1
		c-0.2,0.5-0.8,1.7-0.7,2.2c0.4,1.2,1.4,2.3,2.2,3.3c1,1.4,2,2.7,3,4c2,2.6,3.9,5.1,5.9,7.6c0.7,0.9,1.6,2.5,2.8,2.4
		c1.6-0.1,3.2-0.3,4.8-0.5c6.4-0.9,12.8-2.3,19-4.1c6-1.7,12-3.6,17.7-6.4c0.7-0.3,1.3-0.7,2-1c0.3-0.2,0.7-0.4,1-0.6
		c0.3,0.3,0.5,0.5,0.8,0.8c1.2,1.1,2.3,2.3,3.5,3.4c2.3,2.1,4.6,4.2,7,6.3c2.4,2,4.8,4,7.3,5.9c0.3,0.2,0.6,0.5,0.9,0.7
		c0.4,0.3,0.2,0.5,0,0.9c-0.3,0.7-0.5,1.4-0.8,2.1c-0.5,1.6-1,3.1-1.4,4.7c-1.6,6.2-2.7,12.7-3.4,19.1c-0.3,3.2-0.6,6.4-0.8,9.6
		c-0.2,3.2-0.3,6.5,0,9.6c0.1,1.1,1.9,1.8,2.7,2.3c1.4,0.9,2.9,1.7,4.3,2.6c2.8,1.6,5.6,3.2,8.4,4.8c1.1,0.6,2.4,1.6,3.6,1.7
		c0.6,0.1,1.4-0.6,1.9-0.8c0.8-0.4,1.5-0.8,2.3-1.3c2.7-1.6,5.4-3.3,8-5.1c5.2-3.5,10.2-7.3,14.9-11.5c2.3-2,4.6-4.2,6.7-6.4
		c1-1.1,2-2.2,2.9-3.4c0.3-0.4,0.5-0.2,0.9,0c0.4,0.1,0.7,0.3,1.1,0.4c0.8,0.3,1.7,0.7,2.5,1c5.9,2.3,12,4.3,18.1,6.1
		c0.7,0.2,1.5,0.4,2.2,0.6c0.5,0.1,0.4,0.3,0.4,0.9c0,0.4,0,0.8,0,1.1c0.1,1.6,0.2,3.3,0.4,4.9c0.4,3.2,1,6.4,1.6,9.5
		c1.4,6.3,3.2,12.5,5.3,18.6c1,3,2.1,5.9,3.4,8.7c0.2,0.4,0.5,1.5,0.9,1.7c0.5,0.2,1.1,0.3,1.7,0.5c1.6,0.3,3.2,0.5,4.9,0.8
		c3.2,0.4,6.5,0.9,9.7,1.2c1.5,0.2,3,0.4,4.5,0.5c0.9,0,1.2-0.1,1.7-0.7c0.6-0.6,1.1-1.3,1.7-2c3.9-4.9,7.3-10.3,10.5-15.7
		c3.1-5.4,6.1-10.9,8.3-16.7c0.5-1.4,1-2.8,1.5-4.2c0.1-0.4,0.2-0.7,0.3-1.1c0.1-0.5,0.4-0.4,0.9-0.4c0.9,0,1.8,0,2.7,0
		c3.3-0.1,6.5-0.2,9.8-0.4c3.3-0.2,6.5-0.5,9.8-0.9c0.8-0.1,1.6-0.2,2.4-0.3c0.5-0.1,0.7-0.3,0.9,0.2c0.1,0.3,0.3,0.7,0.4,1
		c0.6,1.4,1.4,2.8,2.1,4.2c3,5.5,6.7,10.6,10.5,15.5s7.9,9.8,12.4,14.1c0.7,0.7,1.9,2.2,2.9,2.2c1.6-0.1,3.2-0.6,4.7-1
		c3.2-0.8,6.3-1.7,9.4-2.5c1.4-0.4,2.9-0.8,4.3-1.2c0.6-0.2,1.3-0.4,1.8-0.6c0.8-0.4,0.9-1.1,1.2-1.9c1-3,1.7-6.2,2.3-9.3
		c1.3-6.3,2.3-12.8,2.8-19.2c0.3-3.3,0.4-6.5,0.4-9.8c0-1.6-0.1-3.1-0.2-4.7c0-0.4-0.1-0.7-0.1-1.1c-0.1-0.5-0.3-0.7,0.3-0.9
		c0.8-0.3,1.6-0.7,2.4-1c5.8-2.5,11.4-5.2,16.9-8.2c1.3-0.7,2.6-1.4,3.9-2.2c1.1,1.1,2.3,2.2,3.5,3.2c2.4,2,4.9,3.8,7.4,5.5
		c5.3,3.6,10.8,6.7,16.5,9.6c2.8,1.4,5.7,2.8,8.6,4c1.4,0.6,2.7,1.1,4.2,1.5c0.3,0.1,1.1-0.5,1.3-0.7c0.7-0.5,1.4-1,2.1-1.5
		c2.6-1.9,5.2-3.9,7.7-5.9c1.2-0.9,2.4-1.9,3.6-2.8c0.9-0.7,2.8-1.8,2.7-3.1c-0.2-6.4-1.8-12.8-3.3-19s-3.3-12.3-5.7-18.1
		c-0.6-1.4-1.2-2.7-1.8-4.1c-0.3-0.7-0.7-1.3-1-2c-0.2-0.3-0.4-0.7-0.5-1c-0.3-0.5,0.2-0.7,0.6-1.1c2.2-2.2,4.3-4.5,6.4-6.9
		c2.1-2.3,4.1-4.7,6.1-7.1c1-1.2,1.9-2.3,2.8-3.5c0.2-0.3,0.5-0.6,0.7-0.9c0.3-0.4,0.3-0.7,0.8-0.4c0.8,0.3,1.7,0.6,2.5,0.9
		c6.1,2.1,12.5,3.3,18.8,4.2c6.4,0.9,12.8,1.5,19.3,1.6c1.5,0,3.1,0,4.6-0.1c0.7-0.1,0.8-0.1,1.3-0.7c0.5-0.7,1-1.4,1.4-2.1
		c1.7-2.8,3.3-5.6,4.9-8.4c0.8-1.3,1.5-2.7,2.3-4c0.6-1.1,1.7-2.6,1.9-3.9c0.1-0.6-0.6-1.4-0.8-1.9c-0.3-0.7-0.7-1.3-1.1-2
		c-0.8-1.4-1.7-2.8-2.5-4.2c-3.4-5.3-7.1-10.4-11-15.3c-3.9-4.8-8.1-9.5-13-13.3c-0.4-0.3-0.2-0.5,0-0.9c0.1-0.4,0.3-0.7,0.4-1.1
		c0.3-0.7,0.6-1.4,0.8-2.1c0.6-1.5,1.2-3.1,1.7-4.6c1.1-3,2.1-6,3-9c0.5-1.5,0.9-2.9,1.3-4.4c0.2-0.7,0.4-1.5,0.6-2.2
		c0.1-0.5,0-0.7,0.6-0.7c0.5,0,1,0,1.5,0c3.2-0.1,6.3-0.6,9.5-1.1c6.4-1.1,12.6-2.7,18.8-4.7c3-1,6-2,9-3.1c1.4-0.5,2.8-1.1,4.1-1.7
		c0.7-0.3,1.3-0.6,1.9-1c0.4-0.2,0.5-1.4,0.5-1.8c0.6-3.3,1-6.6,1.4-9.9c0.2-1.7,0.4-3.3,0.6-5C506.5,279.4,506.9,277.6,506.7,276.1
		C506.7,275.9,506.7,276.6,506.7,276.1z M428.3,247.9c0.8,25.3-4.1,50.2-13.6,73.5c-9.1,22.1-23.3,42.3-40.5,58.8
		c-18,17.2-39.7,30.5-63.3,38.6c-23.8,8.2-49.1,11.4-74.2,9c-24.8-2.4-49.1-10.2-70.7-22.6c-21.3-12.3-40-29.1-54.4-49
		C97,336,86.8,312.7,81.9,288.3c-5-24.6-4.7-50.2,1.1-74.6c5.6-23.7,16.1-46.2,30.8-65.6c14.9-19.8,34-36.3,55.8-48.2
		c22.4-12.2,47.4-19.3,72.8-21c24.9-1.7,50.3,2.3,73.6,11.2c22.7,8.7,43.5,22.1,60.7,39.2c17.6,17.5,31.4,38.6,40.2,61.8
		C423.8,209.2,427.7,228.5,428.3,247.9C428.4,249.1,428.3,247.8,428.3,247.9z"/>
</g>
<g id="Eagle">
	<g id="_x33_322_Numbers">
		<path id="_x32_-2_Character" class="st0" d="M267.5,137.2c2.2-1.6,4.5-4.1,5.8-7.1c0.8-1.8,1-3.3,1-5.1c0.1-5.6-1.8-11-6.2-15.3
			c-4.5-4.4-10.3-6-17.1-6c-4.8,0-9.1,1.2-12.9,3.5c1.1,0.7,2.2,1.5,3.1,2.5c3.7,3.6,5.6,7.9,6.1,12.5c0.8-1,2.2-1.7,3.7-1.7
			c2.8,0,4.7,1.9,4.7,4.2c0,0.2,0,0.5-0.1,0.8c-0.9,1.6-1.5,1.9-2.6,2.8c-0.3,0.3-15.3,11.2-21.5,15.7h15.9v15.7h26.9V144h-17
			L267.5,137.2z"/>
		<path id="_x32_-2_Outline" class="st1" d="M267.5,137.2c2.2-1.6,4.5-4.1,5.8-7.1c0.8-1.8,1-3.3,1-5.1c0.1-5.6-1.8-11-6.2-15.3
			c-4.5-4.4-10.3-6-17.1-6c-4.8,0-9.1,1.2-12.9,3.5c1.1,0.7,2.2,1.5,3.1,2.5c3.7,3.6,5.6,7.9,6.1,12.5c0.8-1,2.2-1.7,3.7-1.7
			c2.8,0,4.7,1.9,4.7,4.2c0,0.2,0,0.5-0.1,0.8c-0.9,1.6-1.5,1.9-2.6,2.8c-0.3,0.3-15.3,11.2-21.5,15.7h15.9v15.7h26.9V144h-17
			L267.5,137.2z"/>
		<path id="_x32_-1_Character" class="st0" d="M240.7,137.2c2.2-1.6,4.5-4.1,5.8-7.1c0.8-1.8,1-3.3,1-5.1c0.1-5.6-1.8-11-6.2-15.3
			c-4.5-4.4-10.3-6-17.1-6c-1.1,0-2.2,0.1-3.3,0.2h0.2l-10.5,18.6l9,1.7c0.3-2.1,2.2-3.7,4.6-3.7c2.8,0,4.7,1.9,4.7,4.2
			c0,0.2,0,0.5-0.1,0.8c-0.9,1.6-1.5,1.9-2.6,2.8c-0.1,0.1-2.9,2.2-6.5,4.8c0.6,1.8,1,3.8,1,6c0,10-7.6,18.3-17.9,20.6h44.6V144h-17
			L240.7,137.2z"/>
		<path id="_x32_-1_Outline" class="st1" d="M240.7,137.2c2.2-1.6,4.5-4.1,5.8-7.1c0.8-1.8,1-3.3,1-5.1c0.1-5.6-1.8-11-6.2-15.3
			c-4.5-4.4-10.3-6-17.1-6c-1.1,0-2.2,0.1-3.3,0.2h0.2l-10.5,18.6l9,1.7c0.3-2.1,2.2-3.7,4.6-3.7c2.8,0,4.7,1.9,4.7,4.2
			c0,0.2,0,0.5-0.1,0.8c-0.9,1.6-1.5,1.9-2.6,2.8c-0.1,0.1-2.9,2.2-6.5,4.8c0.6,1.8,1,3.8,1,6c0,10-7.6,18.3-17.9,20.6h44.6V144h-17
			L240.7,137.2z"/>
		<path id="_x33_-2_Character" class="st0" d="M210.3,123l10.8-19h-26.7l-8.1,14.3l12.9,0.2l-8.3,10.7c0.5,0.7,0.9,1.3,1.2,2.1
			l7.9,2.7c2.7,0.9,2.8,4.1,2.7,5.2c-0.3,2.7-2.4,4.9-5.4,4.9c-1.3,0-2.6-0.4-3.7-1.1c-1.1,5.6-4.7,10.4-9.6,13.5
			c3.8,2.4,8.3,3.8,13.3,3.8c12.9,0,23.3-9.4,23.3-21.2C220.7,131.1,215.6,125.6,210.3,123"/>
		<path id="_x33_-2_Outline" class="st1" d="M210.3,123l10.8-19h-26.7l-8.1,14.3l12.9,0.2l-8.3,10.7c0.5,0.7,0.9,1.3,1.2,2.1
			l7.9,2.7c2.7,0.9,2.8,4.1,2.7,5.2c-0.3,2.7-2.4,4.9-5.4,4.9c-1.3,0-2.6-0.4-3.7-1.1c-1.1,5.6-4.7,10.4-9.6,13.5
			c3.8,2.4,8.3,3.8,13.3,3.8c12.9,0,23.3-9.4,23.3-21.2C220.7,131.1,215.6,125.6,210.3,123z"/>
		<path id="_x33_-1_Character" class="st0" d="M183.7,123c5.3,2.6,10.4,8.1,10.4,16.2c0,11.7-10.4,21.2-23.3,21.2
			c-11.4,0-20.9-7.5-22.9-17.4c0,0,15.6-3.7,15.7-3.6c1.5,2.8,4.3,4.8,7.2,4.8c3,0,5.1-2.2,5.4-4.9c0.2-1.1,0-4.3-2.7-5.2l-10.1-3.6
			l9.3-12l-20.8-0.4l-0.8-14.1h43.3L183.7,123z"/>
		<path id="_x33_-1_Outline" class="st1" d="M194.4,103.9H151l0.8,14.1l20.8,0.4l-9.3,12l10.2,3.5c2.7,0.9,2.8,4.1,2.7,5.2
			c-0.3,2.7-2.4,4.9-5.4,4.9c-2.9,0-5.7-2-7.2-4.8c-0.1-0.2-15.7,3.6-15.7,3.6c2,9.9,11.4,17.4,22.9,17.4c12.9,0,23.3-9.4,23.3-21.2
			c0-8.1-5.1-13.7-10.4-16.2L194.4,103.9z"/>
	</g>
	<g id="Eagle_Elements">
		<g id="Head">
			<g>
				<path class="st2" d="M393,309l-213.2-17.1c37.5-4.2,71.7-26.4,88.7-49.9l0,0c0,30.9,95.4,32,119.2,55.5
					C390.7,304.8,393,309,393,309z"/>
				<path class="st3" d="M370.3,158.7c18.1,21.8,9.3,48.2,9.3,48.2c-9.1,38.6,1.1,73.2,8.1,90.5c-23.8-23.5-119.2-24.5-119.2-55.5
					l0,0c10-13.9,14-28.3,9.1-39.7c0.9-2.9,1.7-5.4,2.3-7.6c3.4-12.1,2.2-14.6-6-30.9C300,137.3,352.2,136.9,370.3,158.7z"/>
				<path class="st4" d="M273.9,163.8c8.1,16.3,9.4,18.8,6,30.9c0,0-32.4-5.7-30.2,3.3c-4.5,3.6-8.8,15.1-8.8,15.1
					C232.1,165.3,273.9,163.8,273.9,163.8z"/>
				<path class="st4" d="M279.9,194.6c-0.6,2.2-1.4,4.7-2.3,7.6c-13.4-0.6-27.9-4.3-27.9-4.3C247.5,188.9,279.9,194.6,279.9,194.6z"
					/>
			</g>
			<g>
				<path class="st5" d="M273.9,163.8c0,0-41.8,1.6-33,49.3c0,0,4.3-11.6,8.8-15.1c0,0,14.5,3.7,27.9,4.3
					c4.9,11.4,0.9,25.8-9.1,39.7c-17,23.6-51.2,45.8-88.7,49.9L393,309c0,0-2.4-4.2-5.3-11.6c-7-17.3-17.2-51.9-8.1-90.5
					c0,0,8.8-26.4-9.3-48.2C352.2,136.9,300,137.3,273.9,163.8z"/>
				<path class="st6" d="M273.9,163.8c8.1,16.3,9.4,18.8,6,30.9c-0.6,2.2-1.4,4.7-2.3,7.6"/>
				<path class="st6" d="M249.7,197.9c-2.2-9,30.2-3.3,30.2-3.3"/>
			</g>
		</g>
		<g id="Eye_1_">
			<g>
				<path class="st2" d="M312.7,172.6c8.5,8.8-21.9,0.7-21.9,0.7S304.2,163.8,312.7,172.6z"/>
			</g>
			<g>
				<path class="st7" d="M290.8,173.2c0,0,13.4-9.4,21.9-0.7C321.2,181.3,290.8,173.2,290.8,173.2z"/>
			</g>
		</g>
		<path id="Wings" class="st8" d="M377.4,229.7c0,0,77.1,46.1,51.1,130.2l-11-9c0,0,1,20.6-14.6,43.7l-8.2-16.3
			c0,0-13.1,30.2-23.1,40.5l-7.5-18.8c0,0-18.5,32-43,49.7l4.3-32c0,0-33.4,28.4-77,36.6l30.2-40.8c0,0-39.4,29.8-111.5,22.7
			l60.7-41.9c0,0-60,21-111.5,5l73.1-36.2c0,0-42.6,11.7-109-15.6l76-20.9c0,0-71,0.4-111.5-49.3l61.8,2.8c0,0-46.2-31.6-44.4-75.3
			l43.3,39.4c0,0-22.7-27.3-1.8-98.7c0,0,10.6,90.8,81.8,128.2s138.8,23.5,175.6-23.5l1.2,9.7L377.4,229.7z"/>
		<g id="Feather_Dividers">
			<polygon class="st9" points="415.1,304 419.3,350.8 415.6,350.9 			"/>
			<path class="st9" d="M398.2,306.1c0,0,1.2,4.5,2.3,11.3c0.6,3.4,1.2,7.4,1.6,11.7c0.3,2.2,0.4,4.4,0.6,6.6
				c0.2,2.3,0.2,4.6,0.3,6.9s0,4.6-0.1,6.9s-0.3,4.5-0.5,6.7c-0.3,2.2-0.5,4.3-0.9,6.2c-0.4,2-0.8,3.8-1.2,5.6
				c-0.5,1.7-1,3.2-1.4,4.6s-1,2.5-1.4,3.5c-0.8,1.9-1.3,3-1.3,3l-3.2-1.7c0,0,0.5-1,1.4-2.7c0.4-0.9,1.1-1.9,1.5-3.2
				c0.5-1.3,1-2.7,1.6-4.3c0.4-1.6,0.9-3.4,1.4-5.3c0.4-1.9,0.7-3.9,1.1-6c0.3-2.1,0.5-4.3,0.8-6.5c0.1-2.2,0.4-4.5,0.4-6.8
				s0.1-4.6,0-6.8c0-2.3-0.1-4.5-0.2-6.6c-0.2-4.3-0.6-8.3-1-11.7C399.1,310.6,398.2,306.1,398.2,306.1"/>
			<path class="st9" d="M378.2,307.4c0,0,0.4,1.5,0.8,4c0.3,1.3,0.5,2.9,0.8,4.7c0.2,1.8,0.6,3.8,0.8,6.1c0.2,2.2,0.5,4.7,0.6,7.2
				c0.2,2.6,0.2,5.3,0.3,8.1c0,2.8,0,5.7-0.2,8.7c-0.2,2.9-0.3,6-0.7,8.9c-0.2,1.5-0.4,3-0.6,4.5s-0.5,3-0.8,4.4
				c-0.3,1.5-0.5,2.9-0.8,4.3c-0.4,1.4-0.7,2.8-1.1,4.2c-0.4,1.4-0.7,2.7-1,4c-0.4,1.3-0.9,2.6-1.3,3.8c-0.8,2.5-1.6,4.8-2.6,6.9
				c-0.9,2.1-1.7,4-2.5,5.7c-0.9,1.6-1.7,3-2.3,4.2c-1.3,2.3-2,3.7-2,3.7l-3.1-1.9c0,0,0.8-1.3,2.1-3.5c0.7-1.1,1.5-2.4,2.4-4
				c0.8-1.6,1.7-3.4,2.6-5.4c1-2,1.9-4.2,2.7-6.6c0.5-1.2,0.9-2.4,1.4-3.7c0.4-1.3,0.8-2.6,1.2-3.9s0.8-2.7,1.2-4.1
				c0.3-1.4,0.6-2.8,1-4.2c0.3-1.4,0.7-2.9,0.9-4.3c0.2-1.5,0.5-2.9,0.7-4.4c0.6-2.9,0.7-5.9,1.1-8.8c0.2-2.9,0.4-5.8,0.5-8.6
				c0-2.8,0.1-5.5,0-8.1c0-2.6-0.2-5-0.3-7.2s-0.4-4.3-0.5-6.1c-0.2-1.8-0.4-3.4-0.6-4.7C378.5,308.9,378.2,307.4,378.2,307.4"/>
			<path class="st9" d="M355.9,312.8c0,0,1.7,7,1.9,17.7c0.1,2.7,0,5.6-0.1,8.6c-0.1,1.5-0.2,3.1-0.3,4.7c-0.1,1.6-0.2,3.2-0.5,4.9
				c-0.2,1.7-0.4,3.3-0.7,5.1c-0.3,1.7-0.6,3.4-1,5.1c-0.6,3.5-1.6,6.9-2.5,10.4c-0.2,0.9-0.4,1.7-0.7,2.6l-0.9,2.5
				c-0.6,1.7-1.2,3.4-1.7,5c-1.2,3.3-2.7,6.5-4,9.6c-1.4,3.1-3,5.9-4.4,8.6c-1.3,2.8-3.1,5.2-4.5,7.5c-0.7,1.1-1.4,2.2-2.1,3.3
				c-0.3,0.5-0.7,1-1,1.5c-0.4,0.5-0.7,0.9-1,1.4c-1.3,1.7-2.5,3.3-3.4,4.5c-1.9,2.5-3,3.9-3,3.9l-2.8-2.3c0,0,1.1-1.4,3-3.8
				c1-1.2,2.1-2.7,3.5-4.3c0.3-0.4,0.7-0.8,1-1.3s0.6-1,1-1.5c0.7-1,1.4-2,2.1-3.1c1.4-2.2,3.2-4.5,4.6-7.2c1.4-2.6,3.2-5.4,4.6-8.3
				c1.4-3,2.9-6,4.2-9.3c0.6-1.6,1.2-3.3,1.9-4.9l0.9-2.5c0.3-0.8,0.5-1.7,0.8-2.5c1-3.4,2.1-6.7,2.8-10.2c0.4-1.7,0.8-3.4,1.1-5
				c0.3-1.7,0.5-3.3,0.8-5c0.3-1.6,0.5-3.3,0.6-4.8c0.2-1.6,0.3-3.1,0.5-4.7c0.1-3,0.4-5.9,0.3-8.6
				C357.3,319.8,355.9,312.8,355.9,312.8"/>
			<path class="st9" d="M331.8,319.8c0,0,0,1.7-0.3,4.8c-0.1,1.5-0.4,3.4-0.6,5.5c-0.3,2.1-0.7,4.5-1.2,7c-0.5,2.6-1.2,5.3-1.9,8.2
				c-0.8,2.9-1.7,5.9-2.8,9c-1.2,3-2.2,6.3-3.7,9.4c-0.7,1.6-1.4,3.2-2.1,4.8c-0.8,1.6-1.6,3.1-2.5,4.6c-1.6,3.1-3.5,6.1-5.3,9
				c-1.7,3-4,5.6-5.9,8.3c-0.5,0.7-1,1.3-1.5,2c-0.5,0.6-1.1,1.2-1.6,1.8c-1.1,1.2-2.1,2.3-3.1,3.5c-1,1.1-1.9,2.3-3,3.2
				c-1,1-2,1.9-3,2.8c-2,1.8-3.6,3.5-5.4,4.8c-1.7,1.3-3.2,2.5-4.4,3.4c-2.5,1.9-3.9,3-3.9,3l-2-3c0,0,1.4-1,3.8-2.8
				c1.2-0.9,2.7-1.9,4.4-3.2c1.7-1.2,3.4-2.9,5.4-4.5c1-0.8,2-1.7,3-2.6c1.1-0.9,2-2,3-3.1s2.1-2.2,3.1-3.3c0.5-0.6,1.1-1.1,1.6-1.7
				s1-1.2,1.5-1.9c2-2.6,4.2-5,6.1-7.9c1.9-2.8,3.9-5.6,5.5-8.7c0.9-1.5,1.7-3,2.6-4.5c0.8-1.5,1.5-3.1,2.3-4.6c1.6-3,2.7-6.2,4-9.2
				c1.1-3,2.2-6,3-8.9s1.6-5.6,2.2-8.1s1-4.9,1.5-7c0.3-2.1,0.6-3.9,0.8-5.4C331.8,321.5,331.8,319.8,331.8,319.8"/>
			<path class="st9" d="M299.2,324.9c0,0-0.6,1.5-1.9,3.9c-1.3,2.5-3.1,6-5.6,10c-1.2,2.1-2.7,4.2-4.2,6.5s-3.3,4.6-5,7
				c-1.9,2.3-3.7,4.8-5.8,7.1c-1,1.2-2.1,2.4-3.1,3.6c-1.1,1.2-2.2,2.3-3.3,3.4c-2.2,2.3-4.6,4.5-6.9,6.6c-2.3,2.2-4.8,4-7.1,5.9
				c-2.3,2-4.7,3.5-7,5.1c-1.1,0.8-2.2,1.6-3.3,2.3c-1.1,0.7-2.2,1.3-3.2,1.9c-2.1,1.2-3.9,2.4-5.7,3.3s-3.3,1.6-4.5,2.3
				c-2.5,1.3-4,2-4,2l-1.4-3.3c0,0,1.4-0.6,3.9-1.8c1.2-0.6,2.8-1.3,4.5-2c1.7-0.8,3.6-1.9,5.6-3c1-0.6,2.1-1.2,3.2-1.8
				c1.1-0.7,2.2-1.4,3.3-2.1c2.2-1.5,4.7-2.9,7-4.8c2.3-1.8,4.9-3.5,7.2-5.6c2.4-2,4.8-4,7-6.3c1.1-1.1,2.3-2.2,3.4-3.3
				c1.1-1.1,2.2-2.3,3.2-3.4c2.2-2.2,4.1-4.6,6-6.9s3.6-4.5,5.3-6.7c1.6-2.2,3.1-4.3,4.4-6.3c2.7-3.9,4.6-7.4,6-9.8
				C298.5,326.3,299.2,324.9,299.2,324.9"/>
			<path class="st9" d="M252.7,320.7c0,0-2.6,4.1-7.5,9.5c-1.2,1.4-2.6,2.8-4.1,4.3c-1.5,1.4-3.1,3-4.8,4.5
				c-0.9,0.8-1.7,1.5-2.6,2.3c-0.9,0.7-1.8,1.5-2.8,2.2c-1.9,1.5-3.9,2.9-5.8,4.3c-2,1.4-4.1,2.7-6.1,4s-4.1,2.4-6.1,3.5
				s-4,2-5.9,2.9c-1.9,1-3.7,1.6-5.4,2.4c-1.7,0.7-3.2,1.4-4.7,1.8c-1.4,0.5-2.6,0.9-3.7,1.2c-2,0.7-3.2,1.1-3.2,1.1l-1-3.5
				c0,0,1.1-0.3,3.2-0.9c1-0.3,2.2-0.6,3.6-1s2.9-1,4.6-1.6s3.5-1.2,5.4-2.1c1.9-0.8,3.9-1.6,5.9-2.6s4.1-2,6.2-3.2
				c2-1.2,4.2-2.3,6.2-3.6c2-1.3,4.1-2.6,6-4c1-0.7,1.9-1.4,2.9-2.1c0.9-0.7,1.8-1.4,2.7-2.1c1.8-1.4,3.4-2.9,5-4.2
				c1.5-1.4,3-2.7,4.2-4C249.9,324.6,252.7,320.7,252.7,320.7"/>
			<path class="st9" d="M213.9,305c0,0-0.3,1-1.4,2.4c-0.5,0.7-1.2,1.5-2.1,2.4c-0.8,0.9-1.9,1.7-3.1,2.7c-1.2,0.8-2.5,1.8-4,2.6
				c-1.5,0.9-3.1,1.7-4.8,2.5s-3.5,1.5-5.3,2.3c-1.8,0.7-3.7,1.3-5.6,2c-1.9,0.6-3.8,1.1-5.7,1.6s-3.8,0.9-5.6,1.3
				c-1.8,0.5-3.6,0.8-5.3,1.1c-1.7,0.3-3.3,0.6-4.7,0.9c-1.5,0.3-2.8,0.4-4,0.6s-2.2,0.3-3.1,0.4c-1.7,0.2-2.7,0.4-2.7,0.4l-0.3-3.6
				c0,0,1-0.1,2.7-0.2c0.9-0.1,1.9-0.2,3.1-0.3c1.2-0.1,2.5-0.2,4-0.4c1.5-0.2,3-0.4,4.7-0.6s3.4-0.4,5.2-0.8c1.8-0.3,3.7-0.6,5.6-1
				s3.8-0.9,5.7-1.3c1.9-0.5,3.8-1,5.6-1.6c1.8-0.7,3.6-1.2,5.3-1.9c1.7-0.7,3.3-1.4,4.8-2.2c1.5-0.7,2.8-1.6,4.1-2.4
				c1.2-0.9,2.3-1.6,3.2-2.5c0.9-0.8,1.6-1.6,2.2-2.2C213.5,306,213.9,305,213.9,305"/>
			<path class="st9" d="M169.6,286.1c0,0-3.9,0.7-9.9,1.1c-1.5,0.1-3.1,0.2-4.8,0.3c-1.7,0.1-3.5,0.1-5.4,0.2c-1.9,0-3.8,0-5.8,0
				c-2-0.1-4-0.1-6-0.3c-2-0.1-4-0.3-6-0.5s-3.9-0.4-5.8-0.7c-1.9-0.2-3.7-0.6-5.4-0.9c-1.7-0.3-3.3-0.6-4.8-1s-2.8-0.7-4-1
				c-1.2-0.4-2.2-0.7-3.1-0.9c-1.7-0.5-2.7-0.8-2.7-0.8l1.2-3.4c0,0,0.9,0.3,2.5,0.9c0.8,0.3,1.8,0.6,2.9,1c1.1,0.3,2.4,0.7,3.8,1.2
				s3,0.8,4.6,1.2c1.6,0.4,3.4,0.8,5.2,1.2c1.8,0.4,3.7,0.7,5.6,1s3.9,0.6,5.8,0.8c2,0.3,3.9,0.4,5.9,0.6c1.9,0.2,3.9,0.2,5.7,0.4
				c1.9,0,3.7,0.1,5.4,0.1s3.3,0,4.8,0C165.6,286.5,169.6,286.1,169.6,286.1"/>
			<path class="st9" d="M142.9,267.6c0,0-0.7-0.1-1.8-0.5c-0.6-0.1-1.3-0.4-2.1-0.7c-0.8-0.3-1.7-0.6-2.6-1.1
				c-0.9-0.4-2-0.9-3.1-1.4c-1.1-0.6-2.2-1.1-3.3-1.7c-1.2-0.6-2.4-1.2-3.5-2c-1.2-0.7-2.4-1.4-3.6-2.1c-2.4-1.4-4.7-3-6.9-4.5
				c-1.1-0.7-2.2-1.4-3.1-2.1c-1-0.7-1.9-1.4-2.7-2c-3.4-2.5-5.6-4.1-5.6-4.1l2.3-2.8c0,0,2.1,1.8,5.2,4.5c0.8,0.7,1.6,1.4,2.5,2.2
				s1.9,1.5,2.9,2.3c2,1.6,4.1,3.4,6.4,5c1.1,0.8,2.2,1.6,3.4,2.4c1.1,0.8,2.2,1.5,3.3,2.2c1.1,0.7,2.2,1.3,3.2,2
				c1,0.6,2,1.1,2.9,1.6s1.8,0.9,2.5,1.3c0.8,0.3,1.4,0.7,2,0.9C142.2,267.4,142.9,267.6,142.9,267.6"/>
		</g>
		<g id="Sash">
			<g>
				<path class="st10" d="M258.8,253.4c16,17.8,91.8,47.2,159.7,18.6c4.8,7.9,8.9,16.9,11.7,26.9c-48.7,26-180.7,11.8-183.9-32
					l9.5-20.8h0.1C255.3,248.1,256.3,250.6,258.8,253.4z"/>
				<path class="st10" d="M268.5,241.9c-2.8,3.9-6,7.7-9.7,11.4c-2.5-2.8-3.5-5.2-2.9-7.1C256.8,243.6,260.8,241.9,268.5,241.9z"/>
			</g>
			<g>
				<path class="st5" d="M418.5,272c4.8,7.9,8.9,16.9,11.7,26.9"/>
				<path class="st5" d="M268.5,241.9c-2.8,3.9-6,7.7-9.7,11.4l0,0"/>
				<path class="st11" d="M268.5,241.9c-7.7,0-11.7,1.6-12.6,4.3c-0.6,1.9,0.4,4.4,2.9,7.1c16,17.8,91.8,47.2,159.7,18.6"/>
				<path class="st12" d="M430.2,298.9c-48.7,26-180.7,11.8-183.9-32"/>
				<line class="st12" x1="255.8" y1="246.1" x2="246.3" y2="266.9"/>
			</g>
		</g>
		<g id="Helmet_1_">
			<path class="st13" d="M288.6,235.3c0,0,46.8,41.5,71.2-9.5c0,0,4.1-7-0.1-16.2c0,0-1.3-10.9,7.4-18.8c0,0-25.5-13-27.3-15.9
				c0,0-2,9.2-13.7,10.7s-21.3,2-18.4,12.4s13,10.8-4.4,21.9C303.3,219.8,274.1,216.6,288.6,235.3z"/>
			<path class="st14" d="M360.8,52.8c-32,0-60.4,14.8-78.9,38l32,10.2c12.5-11.1,28.9-17.9,47-17.9c39.1,0,70.7,31.7,70.7,70.7
				c0,25.8-13.9,48.4-34.6,60.8l5,31.5c35.3-15.8,59.9-51.1,59.9-92.3C461.8,98.1,416.6,52.8,360.8,52.8"/>
			<path class="st15" d="M360.4,83.8c-18,0-34.3,6.7-46.8,17.8l12.6,17.1c8.9-8.5,20.9-13.8,34.2-13.8c27.2,0,49.3,22.1,49.3,49.3
				c0,18.7-10.4,34.9-25.7,43.3l12.6,17.1c20.5-12.3,34.2-34.8,34.2-60.4C430.9,115.4,399.3,83.8,360.4,83.8"/>
			<path class="st16" d="M286,155c0,0,4-26.6,37.1-38.8c0,0,41.6-15.8,66.4,26.4c7.8,13.3,12.2,32.3,1.3,55.9c0,0,3.6,7.5-1.7,10
				c0,0,2.8,7-1.3,9.7c-4.1,2.8,2.6,4,7.8,4.8c5.2,0.7,28.8,22.4,23,32.4c0,0,0.6,6.4-19.4-8.6c-20-15.1-28.2-19.2-28-24.3
				c0.2-5.2,15.1-32.7,12.5-37.7c-2.6-4.9-8.1,1.5-9,3.9c-1,2.5-5.2,3.6-8.9,2.5C362.2,190.2,300.7,154.9,286,155"/>
			<path class="st9" d="M343,187c0,1-0.8,1.8-1.8,1.8s-1.8-0.8-1.8-1.8s0.8-1.8,1.8-1.8S343,186,343,187"/>
			<path class="st9" d="M357.1,194.6c0,1-0.8,1.8-1.8,1.8s-1.8-0.8-1.8-1.8s0.8-1.8,1.8-1.8C356.3,192.8,357.1,193.6,357.1,194.6"/>
		</g>
	</g>
</g>
</svg>
