<?xml version="1.0" encoding="utf-8"?>
<!-- Generator: Adobe Illustrator 21.0.2, SVG Export Plug-In . SVG Version: 6.00 Build 0)  -->
<svg version="1.1" xmlns="http://www.w3.org/2000/svg" xmlns:xlink="http://www.w3.org/1999/xlink" x="0px" y="0px"
	 viewBox="0 0 640 480" style="enable-background:new 0 0 640 480;" xml:space="preserve">
<style type="text/css">
	.st0{display:none;}
	.st1{display:inline;fill-rule:evenodd;clip-rule:evenodd;fill:#C7B299;}
	.st2{fill:#FFFFFF;}
	.st3{fill:#1C1C1C;}
	.st4{display:inline;}
	.st5{fill:#1A1A1A;}
	.st6{display:inline;fill:none;stroke:#95272D;stroke-width:1.5;stroke-linejoin:round;stroke-miterlimit:10;}
	.st7{fill:#CCCCCC;stroke:#333333;stroke-width:5.0366;stroke-linejoin:round;stroke-miterlimit:10;}
	.st8{fill:#E6E6E6;stroke:#333333;stroke-width:5.0366;stroke-linejoin:bevel;stroke-miterlimit:10;}
	.st9{fill:none;stroke:#333333;stroke-width:10.6979;stroke-linecap:round;stroke-linejoin:bevel;stroke-miterlimit:10;}
	.st10{fill:#E6E6E6;stroke:#333333;stroke-width:5.3489;stroke-linejoin:bevel;stroke-miterlimit:10;}
	.st11{fill:#E6E6E6;stroke:#333333;stroke-width:5.2237;stroke-miterlimit:10;}
	.st12{fill:#CCCCCC;}
	.st13{fill:#333333;}
	.st14{fill:#E6E6E6;stroke:#333333;stroke-width:5.3489;stroke-linejoin:round;stroke-miterlimit:10;}
	.st15{fill:#4379D6;stroke:#333333;stroke-width:7.4788;stroke-linejoin:round;stroke-miterlimit:10;}
</style>
<g id="Background" class="st0">
	<rect class="st1" width="640" height="480"/>
</g>
<g id="Robot">
	<g id="Wheels">
		<g id="Wheel_2_">
			<path class="st2" d="M149,442.5c-28.5,0-51.7-23.2-51.7-51.7s23.2-51.7,51.7-51.7c28.5,0,51.7,23.2,51.7,51.7
				S177.5,442.5,149,442.5z"/>
			<path class="st3" d="M149,351.6c21.6,0,39.2,17.6,39.2,39.2S170.6,430,149,430s-39.2-17.6-39.2-39.2S127.4,351.6,149,351.6
				 M149,326.6c-35.4,0-64.2,28.7-64.2,64.2S113.5,455,149,455s64.2-28.7,64.2-64.2S184.4,326.6,149,326.6L149,326.6z"/>
		</g>
		<g id="Wheel_1_">
			<path class="st2" d="M314.8,442.5c-28.5,0-51.7-23.2-51.7-51.7s23.2-51.7,51.7-51.7c28.5,0,51.7,23.2,51.7,51.7
				S343.3,442.5,314.8,442.5z"/>
			<path class="st3" d="M314.8,351.6c21.6,0,39.2,17.6,39.2,39.2S336.4,430,314.8,430s-39.2-17.6-39.2-39.2S293.2,351.6,314.8,351.6
				 M314.8,326.6c-35.4,0-64.2,28.7-64.2,64.2s28.7,64.2,64.2,64.2s64.2-28.7,64.2-64.2S350.3,326.6,314.8,326.6L314.8,326.6z"/>
		</g>
		<g id="Wheel">
			<path class="st2" d="M482.4,442.5c-28.5,0-51.7-23.2-51.7-51.7s23.2-51.7,51.7-51.7s51.7,23.2,51.7,51.7S510.9,442.5,482.4,442.5
				z"/>
			<path class="st3" d="M482.4,351.6c21.6,0,39.2,17.6,39.2,39.2S504,430,482.4,430s-39.2-17.6-39.2-39.2S460.8,351.6,482.4,351.6
				 M482.4,326.6c-35.4,0-64.2,28.7-64.2,64.2S447,455,482.4,455s64.2-28.7,64.2-64.2S517.9,326.6,482.4,326.6L482.4,326.6z"/>
		</g>
	</g>
	<g id="Electrical" class="st0">
		<g id="Bad_PCM" class="st4">
			
				<rect x="344.7" y="205.2" transform="matrix(0.9984 5.625681e-02 -5.625681e-02 0.9984 12.6637 -19.8327)" class="st5" width="27.8" height="19.6"/>
		</g>
		<path id="Wires" class="st6" d="M376.7,225.5c-7.8,7.8-1.3,11.1-9.8,11.1c-3.9,0,10.4-7.8,10.1-10.6c-0.4-3.4-15.1-1.9-17.9-0.5
			c-4.6,2.3,44.2-3.4,32.9-4.9c-1.6-0.2-4.4-0.3-8.8-0.3c-35.1,0-48.2,2.6-38.4,5.2c9.8,2.6,52.1,3.3,24.7,2.6
			c-27.3-0.7-31.9,12.4-11.1,8.5c8.8-1.6,17.7-4.8,24.7-7.1c9.6-3.1,15.7-4.5,13,1.9c-1.5,3.7-3.6,6.8-6.1,9.1
			c-5.2,4.8-12.3,6.7-20.5,4.5c-8.4-2.2-14.1-0.8-16.9-3.6c-1.3-1.3-2-3.5-2-7.5c0-12.4-2-24.1,7.8-19.5s-5.2,16.9,7.8,19.5
			c13,2.6,28,2.6,30.6,0c2.6-2.6-37.1-2-27.3-2.6s22.8,9.1,29.9,2.6c7.2-6.5-16.3-20.8-4.6-24.7c11.7-3.9,28.6-10.4,20.2,3.9
			c-2.8,4.8-10.3,8.7-18.4,11.5c-16.4,5.5-35.8,5.9-27.1-2.4c13-12.4,20.8-13,15.6-13c-5.2,0-12.4-11.1-15.6,4.6
			c-3.3,15.6-8.5,15.6-3.3,27.3c5.2,11.7,20.2,20.2,25.4,6.5c5-13.2,76.1-13.7,29.1-13.7c-1.7,0-3.6,0-5.6,0
			c-57.9,0-72.2,14.3-78.1,8.5c-5.9-5.9-14.3-24.1-3.9-24.1c6,0,8.1-2.1,11.4-3c2.5-0.6,5.6-0.5,11.4,1.7
			c13.7,5.2,34.7-6.3,45.2-1.1s38.2,2.4-0.2-0.2c-38.4-2.6-48.8,16.3-58.6,18.2c-9.8,2-48.2-1.3-10.4-6.5c37.8-5.2,70.9,9.8,48.2,15
			s-17.6,5.2-31.9,2.6c-14.3-2.6-24.7,5.2-18.2-6.5c6.5-11.7,3.9-15,15-18.2c11.1-3.3,20.2-5.9,35.1-8.5c15-2.6,26-22.8,23.4-2.6
			c-2.6,20.2-24.7,24.1-2.6,27.3c22.1,3.3,14.3-25.4,12.4-27.3"/>
	</g>
	<g id="Above_Chassis">
		<polygon id="Support" class="st7" points="595.6,307.9 313,306.3 313.9,214.6 593.8,149.8 		"/>
		<polygon id="Chute" class="st8" points="306.8,224.1 306.8,167 419.1,129.9 604.5,36 604.5,159.3 		"/>
		<g id="Holder_1_">
			<line class="st9" x1="141.9" y1="235.7" x2="236.4" y2="305.2"/>
			<polygon id="Holder_3_" class="st10" points="294.3,230.5 74.3,267.4 65.4,218.8 215.2,191.1 218.1,212 			"/>
			
				<rect id="Holder_Pivot_2_" x="54.5" y="269.6" transform="matrix(-1.836970e-16 1 -1 -1.836970e-16 360.6106 203.4915)" class="st11" width="48.1" height="25"/>
		</g>
	</g>
	<g id="Chassis">
		<g id="Inner_2_">
			<rect x="48.1" y="297.1" class="st12" width="553" height="110.8"/>
			<path class="st13" d="M598.5,299.6v105.7H50.7V299.6H598.5 M603.6,294.5H45.6v115.9h558.1V294.5L603.6,294.5z"/>
		</g>
		<path id="Outer_2_" class="st14" d="M45.6,294.5v126.6h558.1V294.5H45.6z M236.9,327.8h80.4l-40.2,69.6L236.9,327.8z M297.6,395.7
			l40.2-69.6l40.2,69.6H297.6z M358.1,326.5h80.4l-40.2,69.6L358.1,326.5z M418.7,395.7l40.2-69.6l40.2,69.6H418.7z M521.3,397.5
			l-40.2-69.6h80.4L521.3,397.5z"/>
	</g>
	<path id="Bumper" class="st15" d="M35,402h249.5c1.9,0,3.5-1.6,3.5-3.5V324c0-1.9-1.6-3.5-3.5-3.5H35c-1.9,0-3.5,1.6-3.5,3.5v74.5
		C31.5,400.4,33.1,402,35,402z"/>
</g>
</svg>
